<svg width="36" height="37" viewBox="0 0 36 37" fill="none" xmlns="http://www.w3.org/2000/svg">
<path d="M20.7755 1C21.5972 1.0002 22.3927 1.28819 23.0225 1.81352L23.25 2.02082L30.9745 9.71004C31.5555 10.2884 31.9136 11.0519 31.986 11.8666L32 12.1732V32.3561C32.0003 33.2351 31.6668 34.0817 31.0664 34.7262C30.466 35.3707 29.643 35.7655 28.7625 35.8314L28.5 35.8401H7.5C6.61699 35.8404 5.76651 35.5085 5.11904 34.9108C4.47157 34.3131 4.07498 33.4939 4.00875 32.6174L4 32.3561V4.48401C3.99972 3.60504 4.33321 2.75844 4.93362 2.11393C5.53403 1.46942 6.35698 1.07463 7.2375 1.00871L7.5 1H20.7755ZM18 4.48401H7.5V32.3561H28.5V14.9361H20.625C19.9288 14.9361 19.2611 14.6608 18.7688 14.1707C18.2766 13.6807 18 13.0161 18 12.323V4.48401ZM18 16.6781C18.4641 16.6781 18.9092 16.8616 19.2374 17.1883C19.5656 17.515 19.75 17.9581 19.75 18.4201V23.1374L20.4745 22.4162C20.8046 22.0989 21.2466 21.9233 21.7055 21.9273C22.1643 21.9313 22.6032 22.1145 22.9277 22.4375C23.2521 22.7604 23.4362 23.1974 23.4402 23.6541C23.4442 24.1109 23.2678 24.5509 22.949 24.8794L19.239 28.576C19.0765 28.7379 18.8835 28.8664 18.671 28.9541C18.4586 29.0418 18.2309 29.0869 18.0009 29.0869C17.7709 29.0869 17.5432 29.0418 17.3307 28.9541C17.1183 28.8664 16.9253 28.7379 16.7628 28.576L13.051 24.8794C12.8839 24.7187 12.7505 24.5265 12.6588 24.314C12.5671 24.1015 12.5188 23.8729 12.5168 23.6416C12.5148 23.4103 12.5591 23.1809 12.6471 22.9668C12.7351 22.7527 12.865 22.5582 13.0293 22.3946C13.1936 22.2311 13.389 22.1017 13.6041 22.0141C13.8191 21.9266 14.0496 21.8825 14.282 21.8845C14.5143 21.8865 14.7439 21.9346 14.9575 22.0258C15.171 22.1171 15.3641 22.2499 15.5255 22.4162L16.25 23.1374V18.4201C16.25 17.9581 16.4344 17.515 16.7626 17.1883C17.0908 16.8616 17.5359 16.6781 18 16.6781ZM21.5 5.2052V11.452H27.7755L21.5 5.2052Z" fill="white"/>
</svg>
