<svg width="120" height="120" viewBox="0 0 120 120" fill="none" xmlns="http://www.w3.org/2000/svg">
<path d="M34.6522 41V41C35.125 40.1634 34.8497 39.1026 34.0298 38.6015L28.2658 35.0791C27.3005 34.4892 26.0384 34.8167 25.4817 35.8015L14.4511 55.3173C13.9207 56.2557 14.2295 57.4458 15.1493 58.0079L21.0298 61.6015C21.8335 62.0927 22.8843 61.82 23.3478 61V61M34.6522 41C36.1014 41.8333 39.7 43.3 42.5 42.5C46 41.5 51.5 38 58 38C64.5 38 71 37.5 75.5 42C77.5 44.5 82 43.5 85.5 41.5M34.6522 41L23.3478 61M23.3478 61C25.7319 61.6667 30.6 63.8 31 67M96.5 61C95.1667 62 92.1 64.9 90.5 68.5M94.5036 34.8527L105.558 55.2601C106.08 56.224 105.729 57.4286 104.77 57.961L99.2515 61.027C98.2847 61.5641 97.0655 61.2145 96.5301 60.2468L85.4271 40.176C84.9087 39.2389 85.2205 38.0597 86.1343 37.5013L91.7021 34.0987C92.6795 33.5014 93.958 33.8455 94.5036 34.8527Z" stroke="#5FA9FF" stroke-width="2" stroke-linecap="round"/>
<path d="M34.6522 41V41C35.125 40.1634 34.8497 39.1026 34.0298 38.6015L28.2658 35.0791C27.3005 34.4892 26.0384 34.8167 25.4817 35.8015L14.4511 55.3173C13.9207 56.2557 14.2295 57.4458 15.1493 58.0079L21.0298 61.6015C21.8335 62.0927 22.8843 61.82 23.3478 61V61M34.6522 41C36.1014 41.8333 39.7 43.3 42.5 42.5C46 41.5 51.5 38 58 38C64.5 38 71 37.5 75.5 42C77.5 44.5 82 43.5 85.5 41.5M34.6522 41L23.3478 61M23.3478 61C25.7319 61.6667 30.6 63.8 31 67M96.5 61C95.1667 62 92.1 64.9 90.5 68.5M94.5036 34.8527L105.558 55.2601C106.08 56.224 105.729 57.4286 104.77 57.961L99.2515 61.027C98.2847 61.5641 97.0655 61.2145 96.5301 60.2468L85.4271 40.176C84.9087 39.2389 85.2205 38.0597 86.1343 37.5013L91.7021 34.0987C92.6795 33.5014 93.958 33.8455 94.5036 34.8527Z" stroke="url(#paint0_linear_1859_11181)" stroke-width="2" stroke-linecap="round"/>
<path d="M57.9999 38C53.9999 38 44 49.5 44 49.5C44 49.5 42.3 51.3 43.5 52.5C45 54 50.9999 53.5 52.9999 52.5C54.008 51.996 55.3335 51.2009 56.4265 50.5148C57.3971 49.9056 58.6276 49.8662 59.6175 50.4436L91.4956 69.0391C92.8923 69.8539 93.392 71.629 92.6254 73.0528L91.9716 74.2669C91.1671 75.761 89.2844 76.291 87.8186 75.4359L87.4999 75.25M78.4999 70L87.4999 75.25M87.4999 75.25L85.5364 78.4757C84.6841 79.876 82.8657 80.3328 81.4528 79.5017L80.5999 79M75.4999 76L80.5999 79M80.5999 79L78.0938 82.9731C77.2125 84.3703 75.3673 84.7921 73.9664 83.9166L72.4999 83M68.4999 80.5L72.4999 83M72.4999 83L70.6443 86.0153C69.468 87.927 66.9492 88.4966 65.0647 87.2772L59.9999 84" stroke="#5FA9FF" stroke-width="2" stroke-linecap="round"/>
<path d="M57.9999 38C53.9999 38 44 49.5 44 49.5C44 49.5 42.3 51.3 43.5 52.5C45 54 50.9999 53.5 52.9999 52.5C54.008 51.996 55.3335 51.2009 56.4265 50.5148C57.3971 49.9056 58.6276 49.8662 59.6175 50.4436L91.4956 69.0391C92.8923 69.8539 93.392 71.629 92.6254 73.0528L91.9716 74.2669C91.1671 75.761 89.2844 76.291 87.8186 75.4359L87.4999 75.25M78.4999 70L87.4999 75.25M87.4999 75.25L85.5364 78.4757C84.6841 79.876 82.8657 80.3328 81.4528 79.5017L80.5999 79M75.4999 76L80.5999 79M80.5999 79L78.0938 82.9731C77.2125 84.3703 75.3673 84.7921 73.9664 83.9166L72.4999 83M68.4999 80.5L72.4999 83M72.4999 83L70.6443 86.0153C69.468 87.927 66.9492 88.4966 65.0647 87.2772L59.9999 84" stroke="url(#paint1_linear_1859_11181)" stroke-width="2" stroke-linecap="round"/>
<path d="M49.0665 64.8112C50.5143 65.7846 51.1217 67.5391 50.7065 69.1369C51.4725 69.1377 52.2464 69.3592 52.9299 69.8186L54.5897 70.9345C56.297 72.0824 56.8356 74.3159 55.9062 76.0983C56.5946 76.1395 57.2814 76.3592 57.8951 76.7718L59.5549 77.8877C61.3882 79.1203 61.8752 81.6057 60.6426 83.439L56.737 89.2481C55.5044 91.0813 53.019 91.5684 51.1857 90.3359L49.526 89.22C48.9121 88.8073 48.4502 88.2536 48.1522 87.6315C46.8524 89.1651 44.5803 89.5099 42.8729 88.362L41.2131 87.2461C40.5295 86.7864 40.0335 86.1521 39.7437 85.4427C38.4207 86.4313 36.5663 86.5319 35.118 85.5582L33.4582 84.4423C31.625 83.2097 31.1379 80.7243 32.3705 78.891L32.6701 78.4453C31.9916 78.3996 31.3157 78.1818 30.7107 77.7751L29.0509 76.6592C27.2176 75.4267 26.7306 72.9413 27.9632 71.1079L32.9847 63.639C34.2173 61.8059 36.7027 61.3188 38.536 62.5513L40.1957 63.6672C40.8005 64.0738 41.258 64.6171 41.5564 65.228L41.8555 64.7831C43.088 62.9499 45.5735 62.4629 47.4068 63.6953L49.0665 64.8112ZM46.2909 65.3551C45.3743 64.739 44.1315 64.9824 43.5153 65.899L34.0302 80.0069C33.414 80.9235 33.6576 82.1662 34.5741 82.7825L36.2338 83.8984C37.1505 84.5147 38.3932 84.2712 39.0095 83.3546L48.4945 69.2466C49.1108 68.33 48.8673 67.0872 47.9507 66.471L46.2909 65.3551ZM51.814 71.4784C50.8974 70.8623 49.6546 71.1057 49.0384 72.0223L41.7851 82.8107C41.1691 83.7272 41.4127 84.97 42.329 85.5863L43.9888 86.7022C44.9053 87.3184 46.1481 87.0748 46.7644 86.1583L54.0177 75.3699C54.634 74.4533 54.3905 73.2106 53.4738 72.5943L51.814 71.4784ZM37.4201 64.211C36.5035 63.5948 35.2608 63.8384 34.6445 64.7549L29.623 72.2238C29.0067 73.1405 29.2502 74.3832 30.1668 74.9995L31.8266 76.1154C32.7432 76.7316 33.9859 76.4881 34.6022 75.5715L39.6237 68.1026C40.2399 67.1859 39.9965 65.9432 39.0799 65.3269L37.4201 64.211ZM56.7792 78.4316C55.8626 77.8153 54.6199 78.0588 54.0036 78.9754L50.098 84.7846C49.4818 85.7012 49.7253 86.944 50.6419 87.5602L52.3016 88.6761C53.2182 89.2924 54.4609 89.0488 55.0773 88.1323L58.9829 82.3231C59.5992 81.4064 59.3557 80.1637 58.439 79.5475L56.7792 78.4316Z" fill="url(#paint2_linear_1859_11181)"/>
<path d="M49.0665 64.8112C50.5143 65.7846 51.1217 67.5391 50.7065 69.1369C51.4725 69.1377 52.2464 69.3592 52.9299 69.8186L54.5897 70.9345C56.297 72.0824 56.8356 74.3159 55.9062 76.0983C56.5946 76.1395 57.2814 76.3592 57.8951 76.7718L59.5549 77.8877C61.3882 79.1203 61.8752 81.6057 60.6426 83.439L56.737 89.2481C55.5044 91.0813 53.019 91.5684 51.1857 90.3359L49.526 89.22C48.9121 88.8073 48.4502 88.2536 48.1522 87.6315C46.8524 89.1651 44.5803 89.5099 42.8729 88.362L41.2131 87.2461C40.5295 86.7864 40.0335 86.1521 39.7437 85.4427C38.4207 86.4313 36.5663 86.5319 35.118 85.5582L33.4582 84.4423C31.625 83.2097 31.1379 80.7243 32.3705 78.891L32.6701 78.4453C31.9916 78.3996 31.3157 78.1818 30.7107 77.7751L29.0509 76.6592C27.2176 75.4267 26.7306 72.9413 27.9632 71.1079L32.9847 63.639C34.2173 61.8059 36.7027 61.3188 38.536 62.5513L40.1957 63.6672C40.8005 64.0738 41.258 64.6171 41.5564 65.228L41.8555 64.7831C43.088 62.9499 45.5735 62.4629 47.4068 63.6953L49.0665 64.8112ZM46.2909 65.3551C45.3743 64.739 44.1315 64.9824 43.5153 65.899L34.0302 80.0069C33.414 80.9235 33.6576 82.1662 34.5741 82.7825L36.2338 83.8984C37.1505 84.5147 38.3932 84.2712 39.0095 83.3546L48.4945 69.2466C49.1108 68.33 48.8673 67.0872 47.9507 66.471L46.2909 65.3551ZM51.814 71.4784C50.8974 70.8623 49.6546 71.1057 49.0384 72.0223L41.7851 82.8107C41.1691 83.7272 41.4127 84.97 42.329 85.5863L43.9888 86.7022C44.9053 87.3184 46.1481 87.0748 46.7644 86.1583L54.0177 75.3699C54.634 74.4533 54.3905 73.2106 53.4738 72.5943L51.814 71.4784ZM37.4201 64.211C36.5035 63.5948 35.2608 63.8384 34.6445 64.7549L29.623 72.2238C29.0067 73.1405 29.2502 74.3832 30.1668 74.9995L31.8266 76.1154C32.7432 76.7316 33.9859 76.4881 34.6022 75.5715L39.6237 68.1026C40.2399 67.1859 39.9965 65.9432 39.0799 65.3269L37.4201 64.211ZM56.7792 78.4316C55.8626 77.8153 54.6199 78.0588 54.0036 78.9754L50.098 84.7846C49.4818 85.7012 49.7253 86.944 50.6419 87.5602L52.3016 88.6761C53.2182 89.2924 54.4609 89.0488 55.0773 88.1323L58.9829 82.3231C59.5992 81.4064 59.3557 80.1637 58.439 79.5475L56.7792 78.4316Z" fill="url(#paint3_linear_1859_11181)"/>
<defs>
<linearGradient id="paint0_linear_1859_11181" x1="106.5" y1="33" x2="100.645" y2="79.4779" gradientUnits="userSpaceOnUse">
<stop stop-color="#FF9056"/>
<stop offset="1" stop-color="#FF5C42"/>
</linearGradient>
<linearGradient id="paint1_linear_1859_11181" x1="93.9999" y1="38" x2="73.4324" y2="99.632" gradientUnits="userSpaceOnUse">
<stop stop-color="#FF9056"/>
<stop offset="1" stop-color="#FF5C42"/>
</linearGradient>
<linearGradient id="paint2_linear_1859_11181" x1="65.6641" y1="75.9701" x2="41.8205" y2="97.778" gradientUnits="userSpaceOnUse">
<stop stop-color="#FF9056"/>
<stop offset="1" stop-color="#FF5C42"/>
</linearGradient>
<linearGradient id="paint3_linear_1859_11181" x1="65.6641" y1="75.9701" x2="41.8205" y2="97.778" gradientUnits="userSpaceOnUse">
<stop stop-color="#FF9056"/>
<stop offset="1" stop-color="#FF5C42"/>
</linearGradient>
</defs>
</svg>
