<svg width="148" height="60" viewBox="0 0 148 60" fill="none" xmlns="http://www.w3.org/2000/svg">
<path d="M4.31129 24.843C3.58093 24.843 2.82696 24.7779 2.04936 24.644C1.27177 24.512 0.588647 24.3565 0 24.1793L0 20.2657C1.64966 20.3761 2.68525 20.4321 3.11038 20.4321C4.02969 20.4321 4.71281 20.2332 5.15974 19.8353C5.63029 19.4375 5.86648 18.7846 5.86648 17.8786L5.86648 0.0976563L11.0971 0.0976563L11.0971 18.6056C11.0971 20.7287 10.5557 22.2985 9.47103 23.3148C8.41183 24.3312 6.69131 24.8412 4.31129 24.8412V24.843Z" fill="#858585"/>
<path d="M24.7266 25.0727C22.1594 25.0727 20.1101 24.7526 18.5785 24.1105C17.0469 23.4703 15.8933 22.2532 15.1157 20.4629C14.3381 18.6707 13.9493 16.0628 13.9493 12.634C13.9493 9.20512 14.3381 6.5973 15.1157 4.80692C15.9169 2.99302 17.0833 1.75603 18.6148 1.09232C20.1464 0.428607 22.183 0.0976563 24.7284 0.0976563C27.2738 0.0976563 29.334 0.428607 30.842 1.09232C32.3735 1.75603 33.5272 2.99483 34.3048 4.80692C35.0824 6.5973 35.4712 9.20693 35.4712 12.634C35.4712 16.061 35.0824 18.6707 34.3048 20.4629C33.5272 22.2532 32.3735 23.4703 30.842 24.1105C29.334 24.7526 27.2956 25.0727 24.7284 25.0727H24.7266ZM24.7266 20.6618C26.2109 20.6618 27.3301 20.4629 28.084 20.065C28.8616 19.6454 29.4158 18.8714 29.7446 17.7429C30.0753 16.5927 30.2388 14.891 30.2388 12.634C30.2388 10.377 30.0735 8.55407 29.7446 7.42558C29.4158 6.2754 28.8616 5.50137 28.084 5.10351C27.3301 4.70564 26.2109 4.50671 24.7266 4.50671C23.2422 4.50671 22.1467 4.70564 21.3691 5.10351C20.6151 5.50137 20.061 6.2754 19.7086 7.42558C19.3543 8.57577 19.178 10.3119 19.178 12.634C19.178 14.9561 19.3434 16.6144 19.6722 17.7429C20.0029 18.8696 20.5443 19.6436 21.2983 20.065C22.0759 20.4629 23.2186 20.6618 24.7266 20.6618Z" fill="#858585"/>
<path d="M45.1783 24.7092C43.8593 24.7092 42.6802 24.4325 41.6446 23.8791C40.6072 23.3257 39.7951 22.5516 39.2064 21.557C38.6178 20.5623 38.3235 19.423 38.3235 18.1408C38.3235 16.9472 38.5942 15.8187 39.1374 14.7571C39.6788 13.6956 40.4673 12.7552 41.5047 11.9377L43.6249 10.2468L43.1653 9.58309C42.5058 8.63184 42.0697 7.81441 41.8572 7.129C41.6446 6.42188 41.5392 5.70211 41.5392 4.9733C41.5392 3.29323 42.1515 2.06527 43.376 1.29125C44.6005 0.49552 46.203 0.0976563 48.1815 0.0976563C49.4769 0.0976563 50.7377 0.175421 51.9623 0.329141C53.2104 0.461159 54.2351 0.638389 55.0363 0.859023V4.44161L49.1698 4.44161C47.591 4.44161 46.8025 4.995 46.8025 6.09998C46.8025 6.49784 46.9333 6.94091 47.1913 7.42739C47.4511 7.91387 47.8744 8.52152 48.4631 9.25214L53.3394 15.5547L58.3919 11.2758L60.2996 13.4984L57.9323 16.8821L55.9174 18.7068L60.5812 24.5446H55.1744L52.5945 21.4937L51.2864 22.5553C50.3435 23.3293 49.3896 23.8827 48.4249 24.2136C47.482 24.5446 46.3992 24.711 45.1746 24.711L45.1783 24.7092ZM46.0976 20.2314C46.6154 20.2314 47.0987 20.1428 47.5456 19.9655C48.0161 19.7883 48.4885 19.4791 48.9591 19.0378L49.842 18.2077L46.1321 13.5961L44.824 14.7246C44.259 15.2111 43.8575 15.6758 43.6231 16.1171C43.4105 16.5602 43.3051 17.0467 43.3051 17.5765C43.3051 18.3723 43.5522 19.0143 44.0464 19.5008C44.5642 19.9872 45.2473 20.2314 46.0958 20.2314H46.0976Z" fill="#858585"/>
<path d="M71.9486 25.0401C70.606 25.0401 69.1689 24.9623 67.6373 24.8086C66.1057 24.6531 64.8104 24.4542 63.7512 24.2118L63.7512 20.3308C65.8478 20.5298 68.4985 20.6292 71.7015 20.6292C73.1386 20.6292 74.2214 20.452 74.9518 20.0975C75.6821 19.7214 76.0473 19.0685 76.0473 18.1408V17.2456C76.0473 16.5168 75.8111 15.9634 75.3406 15.5872C74.8937 15.1894 74.2451 14.9904 73.3966 14.9904H71.171C68.5802 14.9904 66.6362 14.4605 65.3409 13.399C64.0691 12.3374 63.4332 10.6013 63.4332 8.19057V6.99698C63.4332 2.39803 66.2475 0.0976563 71.8796 0.0976563C73.1986 0.0976563 74.5648 0.186271 75.9783 0.363502C77.3918 0.51903 78.6635 0.707111 79.7954 0.927745V4.80873C76.5688 4.60979 74.1306 4.51033 72.4809 4.51033C71.1383 4.51033 70.1263 4.70926 69.4414 5.10712C68.7583 5.48328 68.4167 6.1904 68.4167 7.23027V7.89398C68.4167 8.73492 68.6638 9.35342 69.158 9.75128C69.6758 10.1274 70.4534 10.3155 71.4908 10.3155H74.0706C76.3326 10.3155 78.0513 10.9015 79.2304 12.0734C80.4313 13.2235 81.0327 14.7372 81.0327 16.618V18.0106C81.0327 19.8679 80.6675 21.3165 79.9371 22.3563C79.2068 23.3727 78.1821 24.0816 76.8631 24.4795C75.5441 24.8556 73.9071 25.0437 71.9522 25.0437L71.9486 25.0401Z" fill="#858585"/>
<path d="M94.6624 25.0727C92.0952 25.0727 90.0458 24.7526 88.5143 24.1105C86.9827 23.4703 85.829 22.2532 85.0514 20.4629C84.2738 18.6707 83.885 16.0628 83.885 12.634C83.885 9.20512 84.2738 6.5973 85.0514 4.80692C85.8526 2.99302 87.019 1.75603 88.5488 1.09232C90.0804 0.428607 92.1188 0.0976563 94.6624 0.0976563C97.2059 0.0976563 99.268 0.428607 100.776 1.09232C102.307 1.75603 103.461 2.99483 104.239 4.80692C105.016 6.5973 105.405 9.20693 105.405 12.634C105.405 16.061 105.016 18.6707 104.239 20.4629C103.461 22.2532 102.307 23.4703 100.776 24.1105C99.268 24.7526 97.2295 25.0727 94.6624 25.0727ZM94.6624 20.6618C96.1467 20.6618 97.2659 20.4629 98.0198 20.065C98.7974 19.6454 99.3515 18.8714 99.6804 17.7429C100.009 16.5927 100.175 14.891 100.175 12.634C100.175 10.377 100.009 8.55407 99.6804 7.42558C99.3497 6.2754 98.7974 5.50137 98.0198 5.10351C97.2659 4.70564 96.1467 4.50671 94.6624 4.50671C93.178 4.50671 92.0825 4.70564 91.3049 5.10351C90.5509 5.50137 89.9968 6.2754 89.6443 7.42558C89.29 8.57577 89.1138 10.3119 89.1138 12.634C89.1138 14.9561 89.2792 16.6144 89.608 17.7429C89.9387 18.8696 90.4801 19.6436 91.234 20.065C92.0116 20.4629 93.1544 20.6618 94.6624 20.6618Z" fill="#858585"/>
<path d="M108.257 5.70392C108.257 3.7146 108.835 2.28772 109.988 1.42507C111.166 0.540732 112.579 0.0976563 114.229 0.0976563C118.916 0.0976563 122.686 0.240526 125.537 0.528073V4.64054L115.679 4.64054C114.972 4.64054 114.431 4.82862 114.053 5.20478C113.677 5.55924 113.488 6.02221 113.488 6.5973V10.8092L123.842 11.0751V14.9561L113.488 15.2219V24.6422H108.257V5.70392Z" fill="#858585"/>
<path d="M135.562 4.51033L128.39 4.51033V0.0976562L148 0.0976563V4.50852L140.791 4.50852V24.6422L135.561 24.6422V4.51033H135.562Z" fill="#858585"/>
<path d="M0.204103 34.6929H1.37203L3.6285 38.5028H3.73055L5.98702 34.6929H7.16628L4.19545 39.5346V42.9023H3.16359V39.5346L0.204103 34.6929ZM14.8088 38.7976C14.8088 41.3943 13.278 43.0157 11.1803 43.0157C9.07124 43.0157 7.55181 41.3943 7.55181 38.7976C7.55181 36.201 9.07124 34.5795 11.1803 34.5795C13.278 34.5795 14.8088 36.201 14.8088 38.7976ZM13.8223 38.7976C13.8223 36.6772 12.6657 35.532 11.1803 35.532C9.69489 35.532 8.5383 36.6772 8.5383 38.7976C8.5383 40.918 9.69489 42.0633 11.1803 42.0633C12.6657 42.0633 13.8223 40.918 13.8223 38.7976ZM21.6803 34.6929H22.7008V40.1243C22.7008 41.8138 21.4421 43.0498 19.5032 43.0498C17.5642 43.0498 16.3056 41.8138 16.3056 40.1243V34.6929H17.3261V40.0449C17.3261 41.2355 18.1538 42.0973 19.5032 42.0973C20.8639 42.0973 21.6803 41.2355 21.6803 40.0449V34.6929ZM24.515 42.9023V34.6929H27.3044C29.2321 34.6929 30.1052 35.7587 30.1052 37.2215C30.1052 38.3044 29.6176 39.1605 28.5744 39.5233L30.4227 42.9023H29.2321L27.5199 39.7047L27.3158 39.7161H25.5355V42.9023H24.515ZM25.5355 38.7863H27.2704C28.5744 38.7863 29.096 38.1966 29.096 37.2215C29.096 36.235 28.5744 35.6 27.2591 35.6H25.5355V38.7863ZM34.4934 42.9023V34.6929H37.3735C39.097 34.6929 39.9021 35.6567 39.9021 36.87C39.9021 37.9245 39.2785 38.4007 38.5641 38.5935V38.6729C39.3238 38.7182 40.2309 39.4213 40.2309 40.7252C40.2309 41.9612 39.4145 42.9023 37.4756 42.9023H34.4934ZM37.4642 41.9952C38.7455 41.9952 39.2445 41.4283 39.2445 40.7139C39.2445 39.8748 38.5754 39.1718 37.5209 39.1718H35.5139V41.9952H37.4642ZM37.3395 38.2874C38.2239 38.2874 38.927 37.7431 38.927 36.8813C38.927 36.1669 38.4507 35.6 37.3735 35.6H35.5139V38.2874H37.3395ZM41.6823 42.9023V34.6929H46.6602V35.6H42.7029V38.344H46.3994V39.2398H42.7029V41.9952H46.7169V42.9023H41.6823ZM52.7493 36.7566C52.6585 35.9515 51.9215 35.4866 50.935 35.4866C49.8465 35.4866 49.1321 36.0536 49.1321 36.836C49.1321 37.6977 50.0959 38.0152 50.7196 38.174L51.536 38.4007C52.4204 38.6275 53.8605 39.1378 53.8605 40.6686C53.8605 42.0066 52.7833 43.0498 50.8783 43.0498C49.1094 43.0498 48.0095 42.1313 47.9188 40.7706H48.962C49.0527 41.6891 49.9032 42.1199 50.8783 42.1199C52.0122 42.1199 52.8626 41.5417 52.8626 40.6459C52.8626 39.8521 52.1029 39.546 51.2412 39.2965L50.232 39.0244C48.9393 38.6502 48.1456 37.9925 48.1456 36.8813C48.1456 35.4979 49.3816 34.5795 50.969 34.5795C52.5565 34.5795 53.7017 35.5093 53.7471 36.7566H52.7493ZM54.8697 35.6V34.6929H61.0608V35.6H58.4868V42.9023H57.455V35.6H54.8697ZM0.907124 56.9023V48.6929H3.78724C5.51078 48.6929 6.31585 49.6567 6.31585 50.87C6.31585 51.9245 5.6922 52.4007 4.97784 52.5935V52.6729C5.73756 52.7182 6.64468 53.4213 6.64468 54.7252C6.64468 55.9612 5.82827 56.9023 3.88929 56.9023H0.907124ZM3.87796 55.9952C5.15927 55.9952 5.65819 55.4283 5.65819 54.7139C5.65819 53.8748 4.98918 53.1718 3.93465 53.1718H1.92764V55.9952H3.87796ZM3.75323 52.2874C4.63767 52.2874 5.34069 51.7431 5.34069 50.8813C5.34069 50.1669 4.86445 49.6 3.78724 49.6H1.92764V52.2874H3.75323ZM13.4708 48.6929H14.4913V54.1243C14.4913 55.8138 13.2327 57.0498 11.2937 57.0498C9.35472 57.0498 8.09608 55.8138 8.09608 54.1243V48.6929H9.1166V54.0449C9.1166 55.2355 9.94435 56.0973 11.2937 56.0973C12.6544 56.0973 13.4708 55.2355 13.4708 54.0449V48.6929ZM20.7845 50.7566C20.6938 49.9515 19.9567 49.4866 18.9702 49.4866C17.8817 49.4866 17.1673 50.0536 17.1673 50.836C17.1673 51.6977 18.1311 52.0152 18.7548 52.174L19.5712 52.4007C20.4556 52.6275 21.8957 53.1378 21.8957 54.6686C21.8957 56.0066 20.8185 57.0498 18.9135 57.0498C17.1446 57.0498 16.0448 56.1313 15.954 54.7706H16.9972C17.0879 55.6891 17.9384 56.1199 18.9135 56.1199C20.0474 56.1199 20.8979 55.5417 20.8979 54.6459C20.8979 53.8521 20.1382 53.546 19.2764 53.2965L18.2672 53.0244C16.9746 52.6502 16.1808 51.9925 16.1808 50.8813C16.1808 49.4979 17.4168 48.5795 19.0042 48.5795C20.5917 48.5795 21.737 49.5093 21.7823 50.7566H20.7845ZM24.379 48.6929V56.9023H23.3584V48.6929H24.379ZM32.7132 48.6929V56.9023H31.738L27.2931 50.5071H27.2137V56.9023H26.1932V48.6929H27.1797L31.6246 55.0994H31.704V48.6929H32.7132ZM34.5274 56.9023V48.6929H39.5052V49.6H35.5479V52.344H39.2444V53.2398H35.5479V55.9952H39.5619V56.9023H34.5274ZM45.5943 50.7566C45.5036 49.9515 44.7666 49.4866 43.7801 49.4866C42.6915 49.4866 41.9772 50.0536 41.9772 50.836C41.9772 51.6977 42.941 52.0152 43.5646 52.174L44.381 52.4007C45.2655 52.6275 46.7055 53.1378 46.7055 54.6686C46.7055 56.0066 45.6283 57.0498 43.7234 57.0498C41.9545 57.0498 40.8546 56.1313 40.7639 54.7706H41.8071C41.8978 55.6891 42.7482 56.1199 43.7234 56.1199C44.8573 56.1199 45.7077 55.5417 45.7077 54.6459C45.7077 53.8521 44.948 53.546 44.0862 53.2965L43.0771 53.0244C41.7844 52.6502 40.9907 51.9925 40.9907 50.8813C40.9907 49.4979 42.2266 48.5795 43.8141 48.5795C45.4016 48.5795 46.5468 49.5093 46.5922 50.7566H45.5943ZM52.6472 50.7566C52.5565 49.9515 51.8195 49.4866 50.833 49.4866C49.7444 49.4866 49.03 50.0536 49.03 50.836C49.03 51.6977 49.9939 52.0152 50.6175 52.174L51.4339 52.4007C52.3184 52.6275 53.7584 53.1378 53.7584 54.6686C53.7584 56.0066 52.6812 57.0498 50.7763 57.0498C49.0074 57.0498 47.9075 56.1313 47.8168 54.7706H48.86C48.9507 55.6891 49.8011 56.1199 50.7763 56.1199C51.9102 56.1199 52.7606 55.5417 52.7606 54.6459C52.7606 53.8521 52.0009 53.546 51.1391 53.2965L50.1299 53.0244C48.8373 52.6502 48.0436 51.9925 48.0436 50.8813C48.0436 49.4979 49.2795 48.5795 50.867 48.5795C52.4544 48.5795 53.5997 49.5093 53.645 50.7566H52.6472ZM58.1353 56.9023V48.6929H60.9247C62.8524 48.6929 63.7255 49.8381 63.7255 51.3009C63.7255 52.7523 62.8524 53.9202 60.9361 53.9202H59.1558V56.9023H58.1353ZM59.1558 53.013H60.8907C62.1947 53.013 62.7163 52.276 62.7163 51.3009C62.7163 50.3144 62.1947 49.6 60.8794 49.6H59.1558V53.013ZM64.6779 56.9023H63.6121L66.6169 48.6929H67.6941L70.699 56.9023H69.6218L68.8054 54.5892H65.5057L64.6779 56.9023ZM65.8118 53.6934H68.4879L67.1839 50.0195H67.1158L65.8118 53.6934ZM71.8102 56.9023V48.6929H74.5996C76.5272 48.6929 77.4004 49.7587 77.4004 51.2215C77.4004 52.3044 76.9128 53.1605 75.8696 53.5233L77.7178 56.9023H76.5272L74.815 53.7047L74.6109 53.7161H72.8307V56.9023H71.8102ZM72.8307 52.7863H74.5656C75.8696 52.7863 76.3912 52.1966 76.3912 51.2215C76.3912 50.235 75.8696 49.6 74.5543 49.6H72.8307V52.7863ZM78.4209 49.6V48.6929H84.612V49.6H82.038V56.9023H81.0062V49.6H78.4209ZM92.4926 48.6929V56.9023H91.5175L87.0726 50.5071H86.9932V56.9023H85.9727V48.6929H86.9592L91.4041 55.0994H91.4835V48.6929H92.4926ZM94.3069 56.9023V48.6929H99.2847V49.6H95.3274V52.344H99.0239V53.2398H95.3274V55.9952H99.3414V56.9023H94.3069ZM100.895 56.9023V48.6929H103.684C105.612 48.6929 106.485 49.7587 106.485 51.2215C106.485 52.3044 105.997 53.1605 104.954 53.5233L106.803 56.9023H105.612L103.9 53.7047L103.696 53.7161H101.915V56.9023H100.895ZM101.915 52.7863H103.65C104.954 52.7863 105.476 52.1966 105.476 51.2215C105.476 50.235 104.954 49.6 103.639 49.6H101.915V52.7863Z" fill="#858585"/>
</svg>
