<svg width="100" height="18" viewBox="0 0 100 18" fill="none" xmlns="http://www.w3.org/2000/svg">
<path d="M2.89249 18.0005C2.40251 18.0005 1.89671 17.9527 1.37512 17.8571C0.853522 17.7615 0.395149 17.65 0 17.5225V14.7018C1.10642 14.7815 1.80188 14.8213 2.08639 14.8213C2.70281 14.8213 3.16119 14.6779 3.46151 14.391C3.77763 14.1042 3.93569 13.634 3.93569 12.9807V0.167969H7.44461V13.5066C7.44461 15.0364 7.08106 16.1679 6.35399 16.9009C5.64273 17.6341 4.48889 18.0005 2.89249 18.0005Z" fill="black"/>
<path d="M17.267 17.9999C15.5441 17.9999 14.1689 17.7689 13.1416 17.3067C12.1142 16.8445 11.3397 15.9681 10.8181 14.6772C10.2965 13.3864 10.0358 11.5059 10.0358 9.03581C10.0358 6.56571 10.2965 4.68524 10.8181 3.3944C11.3555 2.08764 12.1379 1.19522 13.1653 0.717129C14.1926 0.239043 15.5599 0 17.267 0C18.9897 0 20.357 0.239043 21.3686 0.717129C22.3959 1.19522 23.1705 2.08764 23.692 3.3944C24.2137 4.68524 24.4745 6.56571 24.4745 9.03581C24.4745 11.5059 24.2137 13.3864 23.692 14.6772C23.1705 15.9681 22.3959 16.8445 21.3686 17.3067C20.357 17.7689 18.9897 17.9999 17.267 17.9999ZM17.267 14.8207C18.2627 14.8207 19.0135 14.6772 19.5193 14.3904C20.0409 14.0875 20.4123 13.5299 20.6336 12.7171C20.8549 11.8884 20.9655 10.6613 20.9655 9.03581C20.9655 7.34658 20.8549 6.09559 20.6336 5.28285C20.4123 4.45416 20.0409 3.8964 19.5193 3.60955C19.0135 3.32269 18.2627 3.17927 17.267 3.17927C16.287 3.17927 15.5362 3.32269 15.0146 3.60955C14.5088 3.8964 14.1374 4.45416 13.9003 5.28285C13.6631 6.11153 13.5446 7.36251 13.5446 9.03581C13.5446 10.6773 13.6553 11.9044 13.8766 12.7171C14.0978 13.5299 14.4614 14.0875 14.9672 14.3904C15.4887 14.6772 16.2553 14.8207 17.267 14.8207Z" fill="black"/>
<path d="M30.977 17.9752C30.0918 17.9752 29.3015 17.7761 28.6061 17.3776C27.9106 16.9793 27.3653 16.4215 26.9702 15.7044C26.575 14.9872 26.3774 14.1665 26.3774 13.2422C26.3774 12.3817 26.5592 11.5689 26.9227 10.8039C27.2863 10.039 27.8158 9.36175 28.5112 8.77211L29.9337 7.553L29.6255 7.07491C29.183 6.38965 28.8906 5.80001 28.7483 5.30599C28.6061 4.79603 28.5349 4.2781 28.5349 3.75221C28.5349 2.54106 28.9459 1.6566 29.7678 1.09883C30.5897 0.525132 31.6645 0.238281 32.9922 0.238281C33.8615 0.238281 34.7072 0.294058 35.5291 0.405611C36.3668 0.501228 37.0544 0.628718 37.5917 0.78808V3.36974H33.656C32.5971 3.36974 32.0676 3.76815 32.0676 4.56496C32.0676 4.85181 32.1545 5.17053 32.3284 5.52113C32.5022 5.87173 32.7867 6.30997 33.1819 6.83587L36.4537 11.3776L39.8441 8.29402L41.1244 9.89559L39.5359 12.3339L38.1845 13.6486L41.314 17.8557H37.6865L35.9559 15.6565L35.0786 16.4215C34.4463 16.9793 33.8062 17.3776 33.1582 17.6167C32.5259 17.8557 31.7989 17.9752 30.977 17.9752ZM31.5934 14.7482C31.9411 14.7482 32.2651 14.6845 32.5654 14.557C32.8816 14.4294 33.1977 14.2063 33.5138 13.8876L34.1065 13.29L31.6171 9.9673L30.7398 10.78C30.3605 11.1307 30.0918 11.4653 29.9337 11.784C29.7915 12.1028 29.7204 12.4534 29.7204 12.8359C29.7204 13.4096 29.8864 13.8716 30.2183 14.2223C30.566 14.5729 31.0243 14.7482 31.5934 14.7482Z" fill="black"/>
<path d="M48.906 17.9994C48.0051 17.9994 47.0409 17.9437 46.0135 17.8321C44.9861 17.7206 44.1168 17.5772 43.4055 17.4018V14.6051C44.8122 14.7485 46.5905 14.8202 48.74 14.8202C49.7042 14.8202 50.4313 14.6927 50.9213 14.4377C51.4113 14.1668 51.6562 13.6967 51.6562 13.0274V12.382C51.6562 11.8561 51.4982 11.4576 51.1821 11.1867C50.8818 10.8998 50.4471 10.7564 49.878 10.7564H48.3844C46.6458 10.7564 45.3417 10.374 44.4724 9.60905C43.6189 8.84412 43.1921 7.59313 43.1921 5.85608V4.99552C43.1921 1.6808 45.0809 0.0234375 48.8586 0.0234375C49.7437 0.0234375 50.6605 0.0871826 51.6088 0.214672C52.5572 0.326226 53.4107 0.461683 54.1694 0.621045V3.41784C52.0039 3.27442 50.368 3.20271 49.2617 3.20271C48.3607 3.20271 47.6811 3.34613 47.2226 3.63299C46.7643 3.9039 46.5351 4.41386 46.5351 5.16286V5.64094C46.5351 6.24652 46.7011 6.69273 47.033 6.97958C47.3808 7.2505 47.9023 7.38595 48.5977 7.38595H50.3285C51.8459 7.38595 52.9997 7.80826 53.79 8.65288C54.5961 9.48156 54.9992 10.5732 54.9992 11.9278V12.9318C54.9992 14.2704 54.7542 15.3142 54.2643 16.0632C53.7742 16.7962 53.0867 17.3062 52.2015 17.5931C51.3164 17.864 50.2178 17.9994 48.906 17.9994Z" fill="black"/>
<path d="M64.3608 17.9999C62.638 17.9999 61.2629 17.7689 60.2355 17.3067C59.2081 16.8445 58.4336 15.9681 57.912 14.6772C57.3904 13.3864 57.1296 11.5059 57.1296 9.03581C57.1296 6.56571 57.3904 4.68524 57.912 3.3944C58.4494 2.08764 59.2318 1.19522 60.2591 0.717129C61.2866 0.239043 62.6538 0 64.3608 0C66.0837 0 67.4509 0.239043 68.4624 0.717129C69.4898 1.19522 70.2643 2.08764 70.786 3.3944C71.3076 4.68524 71.5683 6.56571 71.5683 9.03581C71.5683 11.5059 71.3076 13.3864 70.786 14.6772C70.2643 15.9681 69.4898 16.8445 68.4624 17.3067C67.4509 17.7689 66.0837 17.9999 64.3608 17.9999ZM64.3608 14.8207C65.3566 14.8207 66.1074 14.6772 66.6132 14.3904C67.1348 14.0875 67.5062 13.5299 67.7275 12.7171C67.9488 11.8884 68.0594 10.6613 68.0594 9.03581C68.0594 7.34658 67.9488 6.09559 67.7275 5.28285C67.5062 4.45416 67.1348 3.8964 66.6132 3.60955C66.1074 3.32269 65.3566 3.17927 64.3608 3.17927C63.3808 3.17927 62.63 3.32269 62.1085 3.60955C61.6027 3.8964 61.2312 4.45416 60.9941 5.28285C60.7571 6.11153 60.6386 7.36251 60.6386 9.03581C60.6386 10.6773 60.7491 11.9044 60.9704 12.7171C61.1917 13.5299 61.5552 14.0875 62.061 14.3904C62.5827 14.6772 63.3493 14.8207 64.3608 14.8207Z" fill="black"/>
<path d="M74.1562 4.20779C74.1562 2.77354 74.5434 1.74565 75.318 1.12413C76.1083 0.486692 77.0566 0.167969 78.163 0.167969C81.3084 0.167969 83.8373 0.271553 85.7499 0.478723V3.44285H79.135C78.6609 3.44285 78.2974 3.57831 78.0444 3.84923C77.7916 4.1042 77.6651 4.43887 77.6651 4.85321V7.88905L84.6119 8.08028V10.877L77.6651 11.0683V17.8571H74.1562V4.20779Z" fill="black"/>
<path d="M91.6544 3.34723H86.8416V0.167969H100V3.34723H95.1634V17.8571H91.6544V3.34723Z" fill="black"/>
</svg>
